<?xml version="1.0" encoding="UTF-8" ?>
<!DOCTYPE svg PUBLIC "-//W3C//DTD SVG 1.1//EN" "http://www.w3.org/Graphics/SVG/1.1/DTD/svg11.dtd">
<svg width="199pt" height="283pt" viewBox="0 0 714 1016" version="1.1" xmlns="http://www.w3.org/2000/svg">
<path fill="#ffffff" d=" M 220.76 623.21 C 222.70 623.21 224.37 624.14 226.09 624.95 C 236.46 630.95 245.93 638.36 255.01 646.14 C 260.44 651.35 265.91 656.60 270.34 662.72 C 275.20 668.92 280.21 675.61 281.76 683.46 C 276.63 683.65 271.38 683.91 266.38 682.53 C 251.54 679.62 235.97 673.84 226.86 661.07 C 218.96 650.21 218.14 635.99 220.76 623.21 Z" />
<path fill="#ffffff" d=" M 486.55 625.18 C 488.16 624.03 490.25 624.21 492.13 624.25 C 494.34 629.91 493.33 636.11 493.47 642.03 C 491.99 652.78 486.76 663.35 477.76 669.75 C 468.20 677.63 455.89 680.68 444.04 683.23 C 439.76 683.79 435.43 683.53 431.13 683.52 C 436.12 668.95 446.78 657.21 457.93 646.94 C 466.41 638.40 476.39 631.55 486.55 625.18 Z" />
<path fill="#006600" d=" M 134.85 66.40 C 145.63 43.42 158.45 21.33 173.50 0.87 C 174.06 7.29 172.50 13.57 172.26 19.95 C 171.10 24.48 171.91 29.22 170.91 33.77 C 170.18 37.82 170.72 41.95 170.32 46.03 C 168.92 52.96 169.83 60.06 169.38 67.07 C 168.02 76.64 168.58 86.38 168.69 96.03 C 170.33 103.55 168.72 111.33 170.29 118.86 C 170.45 129.54 171.92 140.11 172.98 150.72 C 173.88 159.29 175.69 167.77 175.79 176.41 C 176.19 175.47 176.61 174.54 177.02 173.62 C 177.37 181.74 178.71 189.79 180.84 197.63 C 193.82 256.51 220.31 313.08 260.95 357.97 C 269.33 366.64 277.71 375.38 287.02 383.08 C 299.87 394.43 314.41 403.74 329.37 412.04 C 333.33 414.80 336.48 418.56 339.26 422.47 C 345.21 431.33 350.14 440.95 352.97 451.29 C 353.91 453.60 354.72 458.11 358.16 456.52 C 362.17 444.73 366.64 432.91 373.84 422.65 C 377.27 418.30 380.72 413.70 385.61 410.91 C 398.15 404.63 409.58 396.39 420.74 387.95 C 431.31 378.84 442.12 369.84 451.19 359.18 C 464.15 345.72 474.60 330.12 484.95 314.64 C 504.91 282.80 519.46 247.69 528.84 211.35 C 530.89 202.57 533.77 193.96 534.78 184.95 C 537.92 171.80 538.94 158.30 541.10 144.99 C 541.78 141.72 541.23 138.33 541.94 135.06 C 543.11 130.48 542.29 125.70 542.79 121.05 C 543.24 119.08 543.53 117.08 543.50 115.07 C 543.66 96.03 543.76 76.98 543.54 57.94 C 543.46 53.28 543.83 48.54 542.75 43.96 C 542.36 38.64 543.07 33.22 541.65 28.01 C 541.48 21.32 540.87 14.64 539.70 8.06 C 539.12 6.00 539.84 3.96 540.65 2.08 C 554.99 21.69 567.06 42.91 577.64 64.76 C 582.58 75.21 587.47 85.70 591.46 96.57 C 596.03 106.83 599.43 117.55 602.80 128.25 C 606.25 138.22 608.64 148.52 611.17 158.75 C 612.91 168.20 615.85 177.43 616.86 187.01 C 618.26 196.33 620.33 205.58 620.81 215.01 C 622.68 223.56 622.23 232.32 623.34 240.95 C 623.58 254.30 623.63 267.65 623.53 281.00 C 623.40 286.34 623.79 291.73 622.70 297.00 C 622.28 315.58 618.72 333.89 616.15 352.27 C 611.70 373.17 607.15 394.12 600.23 414.38 C 588.47 450.44 572.93 485.22 554.63 518.40 C 550.92 524.55 546.66 530.71 545.60 537.99 C 545.12 543.74 544.97 549.83 547.80 555.06 C 552.43 564.37 556.49 573.96 559.81 583.82 C 561.72 589.51 563.00 596.28 568.56 599.65 C 584.49 609.97 603.05 616.31 622.02 617.53 C 628.24 617.57 634.47 617.64 640.69 617.42 C 645.73 616.90 650.61 615.45 655.35 613.72 C 648.27 598.44 636.87 585.72 625.03 573.97 C 613.30 561.32 600.24 549.99 586.52 539.57 C 578.31 533.03 569.27 527.67 560.84 521.44 C 561.44 521.46 562.63 521.51 563.22 521.53 C 566.18 521.69 568.80 523.36 571.63 524.15 C 588.98 530.57 605.80 538.43 621.63 548.05 C 632.34 554.95 643.40 561.43 653.18 569.66 C 669.16 581.89 684.20 595.35 697.87 610.14 C 701.94 615.05 706.14 619.86 710.37 624.63 C 711.53 626.19 713.19 628.03 712.32 630.14 C 707.38 633.57 701.66 635.62 696.26 638.20 C 686.68 641.74 677.12 645.85 666.85 646.86 C 656.34 648.97 645.59 648.71 634.94 648.31 C 626.98 646.97 618.85 646.33 611.15 643.75 C 602.42 640.77 593.59 637.93 585.40 633.63 C 580.41 631.08 575.92 627.53 570.48 625.96 C 570.31 632.49 572.76 638.75 572.58 645.28 C 573.92 653.47 573.37 661.79 573.37 670.06 C 571.94 683.59 570.51 697.28 566.10 710.25 C 559.98 730.13 548.70 748.31 534.02 763.02 C 524.81 772.55 513.84 780.12 504.35 789.34 C 498.73 794.03 493.67 799.32 488.49 804.48 C 481.73 811.49 475.30 819.36 472.67 828.92 C 472.24 833.28 472.47 837.68 472.50 842.06 C 472.48 847.44 474.66 852.56 474.51 857.95 C 474.43 868.30 475.35 878.79 472.88 888.94 C 472.01 900.33 468.52 911.22 466.13 922.33 C 463.17 932.04 460.77 942.03 456.10 951.11 C 453.33 956.76 449.32 961.66 445.74 966.81 C 439.27 974.88 432.39 983.29 422.76 987.67 C 413.41 992.13 402.77 993.44 393.82 998.81 C 388.46 1001.95 384.54 1007.07 378.93 1009.83 C 373.08 1012.58 366.45 1014.42 359.99 1012.99 C 355.64 1011.82 351.34 1014.11 346.93 1013.46 C 338.75 1012.58 330.71 1008.98 324.98 1002.99 C 316.40 994.61 303.92 993.17 293.24 988.81 C 285.72 985.98 279.77 980.38 274.42 974.59 C 268.92 969.28 264.78 962.81 260.43 956.58 C 253.61 946.68 251.02 934.75 247.57 923.43 C 244.12 910.18 240.34 896.88 239.38 883.17 C 237.88 874.54 238.55 865.71 238.59 857.00 C 240.11 847.76 241.14 838.39 240.33 829.02 C 236.88 816.34 227.07 806.94 218.01 798.00 C 213.16 792.81 207.46 788.55 202.45 783.53 C 192.49 775.25 182.14 767.29 173.75 757.34 C 165.23 747.11 157.22 736.18 152.30 723.72 C 144.20 705.98 140.58 686.39 140.32 666.98 C 140.08 664.66 139.30 662.33 139.77 659.99 C 141.20 653.10 139.74 645.96 141.19 639.07 C 141.77 634.45 142.74 629.89 142.49 625.21 C 132.79 631.04 122.91 636.79 112.09 640.32 C 87.00 650.00 58.78 651.29 32.92 643.91 C 22.06 640.17 10.99 636.47 1.28 630.23 C 0.52 626.12 4.23 623.45 6.48 620.56 C 26.33 596.97 49.55 576.27 74.84 558.67 C 92.60 546.99 111.06 536.08 130.97 528.46 C 133.76 527.33 136.43 525.54 139.50 525.35 C 141.36 525.40 143.21 525.45 145.06 525.50 C 130.79 536.72 115.55 546.79 102.48 559.48 C 88.57 571.56 76.18 585.33 65.12 600.05 C 61.49 604.21 59.03 609.20 57.56 614.50 C 66.20 616.69 75.06 618.02 84.00 617.57 C 100.70 618.26 117.21 613.56 132.22 606.49 C 137.45 603.82 142.83 601.20 147.24 597.25 C 150.91 593.73 151.66 588.42 153.18 583.79 C 155.95 574.00 159.88 564.55 164.75 555.61 C 166.68 552.06 167.81 548.08 167.66 544.02 C 168.09 534.76 163.16 526.54 159.03 518.63 C 149.30 500.35 139.47 482.06 131.66 462.85 C 113.16 420.88 100.79 376.32 93.71 331.05 C 92.72 320.40 91.52 309.78 90.49 299.15 C 90.10 276.09 90.05 253.01 90.62 229.95 C 92.31 217.40 93.02 204.72 95.53 192.30 C 98.38 174.00 102.90 156.03 107.45 138.10 C 111.13 126.79 114.24 115.25 118.82 104.25 C 123.34 91.30 129.11 78.84 134.85 66.40 M 564.68 101.27 C 564.34 109.99 564.19 118.79 565.45 127.44 C 565.61 139.13 565.82 150.86 565.36 162.55 C 564.14 168.98 564.98 175.58 563.70 182.01 C 563.39 188.13 561.68 194.05 560.72 200.08 C 559.49 210.99 556.29 221.55 553.42 232.11 C 548.75 248.13 543.33 263.94 536.38 279.13 C 532.70 288.37 527.51 296.87 523.01 305.72 C 504.83 338.36 482.53 368.71 456.70 395.69 C 447.93 405.95 437.81 414.90 427.82 423.92 C 424.51 426.72 420.76 428.92 417.08 431.19 C 404.31 439.24 392.84 449.63 384.57 462.34 C 378.98 472.30 374.31 483.36 374.49 494.99 C 374.25 499.74 372.27 504.16 370.99 508.69 C 368.75 516.22 364.31 522.81 361.57 530.14 C 358.95 531.06 356.03 532.34 353.28 531.25 C 350.06 528.65 348.98 524.48 347.02 521.01 C 341.91 511.53 338.48 501.02 337.61 490.26 C 337.62 484.47 335.71 478.91 333.52 473.62 C 327.17 457.66 315.10 444.44 300.95 434.94 C 296.67 431.80 291.93 429.39 287.68 426.24 C 278.94 419.06 270.90 411.09 263.00 403.00 C 257.73 397.60 252.15 392.48 247.40 386.59 C 228.47 365.79 211.50 343.20 197.08 319.04 C 187.58 303.63 179.21 287.48 172.63 270.60 C 168.41 261.08 164.99 251.23 161.93 241.28 C 154.50 219.51 151.24 196.69 147.69 174.06 C 147.43 169.37 147.72 164.63 146.78 159.99 C 146.32 152.33 146.66 144.65 146.55 136.99 C 146.24 130.95 147.70 125.02 147.59 118.99 C 148.34 114.58 148.91 110.11 148.26 105.65 C 143.78 113.11 142.87 121.98 140.67 130.25 C 137.56 141.08 135.89 152.24 133.79 163.29 C 133.21 174.08 129.68 184.49 129.34 195.30 C 128.44 202.60 127.35 209.90 127.35 217.27 C 125.93 224.78 127.03 232.47 125.67 239.99 C 125.60 251.32 125.40 262.67 125.75 274.00 C 126.52 279.31 126.45 284.67 126.59 290.03 C 128.63 302.97 128.95 316.09 131.25 329.01 C 135.38 365.11 145.06 400.38 158.01 434.27 C 164.83 451.03 171.84 467.76 180.38 483.73 C 191.38 504.28 203.83 524.22 219.21 541.81 C 225.79 548.92 233.06 555.39 239.47 562.67 C 249.94 574.94 260.43 587.24 269.50 600.60 C 279.85 614.90 288.11 630.60 294.95 646.84 C 298.90 657.76 302.06 669.29 301.59 681.01 C 301.69 688.28 302.03 695.98 298.22 702.51 C 294.88 709.91 287.24 714.17 279.72 716.24 C 273.84 716.88 267.90 716.51 262.00 716.56 C 251.21 717.07 241.61 711.33 231.44 708.71 C 229.10 708.14 226.67 708.42 224.29 708.30 C 224.38 711.20 224.30 714.37 226.37 716.70 C 231.05 722.59 236.68 727.68 241.98 733.02 C 250.65 741.77 260.86 748.76 269.65 757.38 C 284.49 769.75 296.60 785.09 306.70 801.49 C 315.35 816.48 322.84 832.71 324.68 850.09 C 322.23 847.92 320.22 845.37 318.75 842.46 C 308.63 823.15 294.57 806.15 278.96 791.04 C 273.75 785.58 267.73 780.98 262.42 775.62 C 251.22 766.12 240.14 756.49 228.90 747.05 C 222.04 741.63 216.24 735.06 210.01 728.97 C 198.74 716.91 188.39 703.03 184.59 686.67 C 182.74 680.40 183.32 673.72 183.72 667.29 C 187.19 654.29 190.46 641.15 191.52 627.71 C 191.78 609.41 192.50 590.70 187.03 573.01 C 181.83 579.23 180.04 587.31 176.94 594.62 C 172.72 606.34 167.68 617.79 164.35 629.83 C 162.89 636.62 160.98 643.32 159.80 650.17 C 159.35 657.12 158.07 664.01 158.56 671.01 C 159.67 685.44 162.93 700.39 171.88 712.11 C 177.06 719.37 182.72 726.58 190.29 731.51 C 196.43 735.71 202.28 740.30 208.02 745.03 C 222.95 756.57 236.84 769.45 249.36 783.58 C 253.86 789.58 257.87 796.05 260.74 803.01 C 265.96 815.80 262.89 829.86 260.65 842.96 C 260.51 852.37 258.37 861.60 257.52 870.95 C 257.40 879.96 257.31 888.98 257.58 897.99 C 259.34 910.42 262.56 923.30 270.91 933.05 C 277.95 940.50 287.59 944.89 294.50 952.50 C 301.68 960.41 310.02 967.13 318.54 973.56 C 326.31 979.59 335.57 983.70 345.25 985.45 C 352.74 985.77 360.27 985.80 367.75 985.38 C 373.52 984.31 379.09 982.22 384.44 979.83 C 390.52 977.17 395.53 972.75 400.91 968.97 C 406.78 964.91 411.44 959.46 416.51 954.50 C 423.36 947.57 431.53 942.16 439.17 936.19 C 447.22 928.80 451.56 918.15 453.82 907.64 C 455.55 894.56 456.57 881.19 454.61 868.05 C 454.71 853.87 451.44 840.00 449.65 826.01 C 449.42 819.90 449.09 813.63 450.89 807.70 C 454.72 792.92 464.89 780.94 475.09 770.04 C 481.13 764.08 488.02 759.07 494.09 753.15 C 506.14 743.13 519.20 734.35 530.98 724.01 C 534.48 720.74 537.30 716.84 540.12 712.99 C 547.47 703.44 551.05 691.60 553.36 679.94 C 553.68 670.97 553.79 661.96 553.30 652.99 C 551.24 641.87 548.59 630.83 545.11 620.05 C 539.49 603.97 532.55 588.38 526.98 572.28 C 522.94 579.12 521.40 587.15 521.30 595.01 C 519.93 603.27 520.61 611.67 520.47 620.00 C 520.10 630.85 522.32 641.54 524.54 652.10 C 525.84 658.41 528.90 664.40 528.61 670.98 C 528.49 677.16 529.29 683.59 527.15 689.54 C 524.38 698.17 520.02 706.23 514.79 713.61 C 506.43 724.53 497.18 734.79 486.87 743.91 C 472.08 756.78 457.39 769.76 442.64 782.69 C 424.49 799.96 406.60 818.27 395.02 840.76 C 393.19 844.47 391.24 848.13 388.63 851.38 C 387.85 846.48 389.15 841.70 390.58 837.07 C 392.62 829.45 396.23 822.40 399.10 815.08 C 407.09 797.26 418.89 781.40 432.11 767.12 C 436.00 763.34 440.29 759.99 444.03 756.05 C 451.56 748.50 460.78 742.88 468.07 735.08 C 474.75 728.74 481.93 722.74 487.12 715.05 C 488.40 713.05 488.45 710.64 488.61 708.36 C 485.29 708.41 481.89 708.06 478.70 709.18 C 471.22 711.76 463.64 714.22 455.83 715.57 C 448.86 715.83 441.89 715.68 434.92 715.66 C 424.41 714.37 415.14 706.19 412.37 695.97 C 408.92 684.63 410.92 672.65 413.56 661.37 C 417.53 646.09 424.22 631.62 432.12 617.99 C 443.67 598.49 457.60 580.51 472.38 563.37 C 477.10 557.46 482.80 552.45 488.01 546.99 C 497.03 538.49 504.13 528.24 511.33 518.21 C 519.25 506.85 525.86 494.69 532.82 482.74 C 543.04 462.60 552.12 441.86 559.61 420.54 C 570.41 389.93 577.81 358.15 582.35 326.03 C 582.54 320.54 583.56 315.14 584.54 309.76 C 586.41 300.84 584.68 291.64 586.37 282.69 C 586.76 268.47 586.56 254.23 586.55 240.00 C 586.45 233.47 586.81 226.88 585.66 220.41 C 585.72 213.55 584.76 206.76 583.68 200.00 C 583.02 185.61 580.19 171.46 578.03 157.25 C 576.42 148.31 574.80 139.36 572.29 130.62 C 569.74 120.84 568.41 110.71 564.68 101.27 M 220.76 623.21 C 218.14 635.99 218.96 650.21 226.86 661.07 C 235.97 673.84 251.54 679.62 266.38 682.53 C 271.38 683.91 276.63 683.65 281.76 683.46 C 280.21 675.61 275.20 668.92 270.34 662.72 C 265.91 656.60 260.44 651.35 255.01 646.14 C 245.93 638.36 236.46 630.95 226.09 624.95 C 224.37 624.14 222.70 623.21 220.76 623.21 M 486.55 625.18 C 476.39 631.55 466.41 638.40 457.93 646.94 C 446.78 657.21 436.12 668.95 431.13 683.52 C 435.43 683.53 439.76 683.79 444.04 683.23 C 455.89 680.68 468.20 677.63 477.76 669.75 C 486.76 663.35 491.99 652.78 493.47 642.03 C 493.33 636.11 494.34 629.91 492.13 624.25 C 490.25 624.21 488.16 624.03 486.55 625.18 Z" />
<path fill="#006600" d=" M 327.38 859.20 C 328.11 861.05 328.02 864.16 330.87 863.55 C 346.25 863.56 361.65 863.58 377.03 863.52 C 380.19 863.60 383.56 863.10 386.50 864.60 C 386.82 869.77 384.76 874.84 385.75 880.03 C 386.23 886.18 389.01 892.11 388.41 898.32 C 385.66 901.92 381.84 904.53 378.24 907.23 C 371.73 911.97 364.18 916.16 355.98 916.45 C 344.71 914.71 334.83 908.07 326.59 900.50 C 324.61 898.97 323.97 896.59 324.53 894.20 C 326.32 886.31 328.44 878.12 326.58 870.03 C 326.53 866.39 326.24 862.70 327.38 859.20 Z" />
<path fill="#006600" d=" M 395.52 928.37 C 401.67 917.43 412.94 909.94 425.07 907.33 C 427.60 908.64 426.43 911.74 426.36 914.00 C 424.38 921.23 417.66 926.30 410.49 927.69 C 405.58 928.77 400.43 930.45 395.52 928.37 Z" />
<path fill="#006600" d=" M 286.56 908.38 C 289.67 908.01 292.87 908.43 295.63 910.00 C 303.00 913.84 311.07 917.73 315.57 925.07 C 315.62 925.93 315.72 927.65 315.77 928.51 C 306.97 929.42 297.19 927.78 290.81 921.18 C 287.40 917.88 285.93 913.05 286.56 908.38 Z" />
<path fill="#fed700" d=" M 564.68 101.27 C 568.41 110.71 569.74 120.84 572.29 130.62 C 574.80 139.36 576.42 148.31 578.03 157.25 C 580.19 171.46 583.02 185.61 583.68 200.00 C 584.76 206.76 585.72 213.55 585.66 220.41 C 586.81 226.88 586.45 233.47 586.55 240.00 C 586.56 254.23 586.76 268.47 586.37 282.69 C 584.68 291.64 586.41 300.84 584.54 309.76 C 583.56 315.14 582.54 320.54 582.35 326.03 C 577.81 358.15 570.41 389.93 559.61 420.54 C 552.12 441.86 543.04 462.60 532.82 482.74 C 525.86 494.69 519.25 506.85 511.33 518.21 C 504.13 528.24 497.03 538.49 488.01 546.99 C 482.80 552.45 477.10 557.46 472.38 563.37 C 457.60 580.51 443.67 598.49 432.12 617.99 C 424.22 631.62 417.53 646.09 413.56 661.37 C 410.92 672.65 408.92 684.63 412.37 695.97 C 415.14 706.19 424.41 714.37 434.92 715.66 C 441.89 715.68 448.86 715.83 455.83 715.57 C 463.64 714.22 471.22 711.76 478.70 709.18 C 481.89 708.06 485.29 708.41 488.61 708.36 C 488.45 710.64 488.40 713.05 487.12 715.05 C 481.93 722.74 474.75 728.74 468.07 735.08 C 460.78 742.88 451.56 748.50 444.03 756.05 C 440.29 759.99 436.00 763.34 432.11 767.12 C 418.89 781.40 407.09 797.26 399.10 815.08 C 396.23 822.40 392.62 829.45 390.58 837.07 C 389.15 841.70 387.85 846.48 388.63 851.38 C 391.24 848.13 393.19 844.47 395.02 840.76 C 406.60 818.27 424.49 799.96 442.64 782.69 C 457.39 769.76 472.08 756.78 486.87 743.91 C 497.18 734.79 506.43 724.53 514.79 713.61 C 520.02 706.23 524.38 698.17 527.15 689.54 C 529.29 683.59 528.49 677.16 528.61 670.98 C 528.90 664.40 525.84 658.41 524.54 652.10 C 522.32 641.54 520.10 630.85 520.47 620.00 C 520.61 611.67 519.93 603.27 521.30 595.01 C 521.40 587.15 522.94 579.12 526.98 572.28 C 532.55 588.38 539.49 603.97 545.11 620.05 C 548.59 630.83 551.24 641.87 553.30 652.99 C 553.79 661.96 553.68 670.97 553.36 679.94 C 551.05 691.60 547.47 703.44 540.12 712.99 C 537.30 716.84 534.48 720.74 530.98 724.01 C 519.20 734.35 506.14 743.13 494.09 753.15 C 488.02 759.07 481.13 764.08 475.09 770.04 C 464.89 780.94 454.72 792.92 450.89 807.70 C 449.09 813.63 449.42 819.90 449.65 826.01 C 451.44 840.00 454.71 853.87 454.61 868.05 C 456.57 881.19 455.55 894.56 453.82 907.64 C 451.56 918.15 447.22 928.80 439.17 936.19 C 431.53 942.16 423.36 947.57 416.51 954.50 C 411.44 959.46 406.78 964.91 400.91 968.97 C 395.53 972.75 390.52 977.17 384.44 979.83 C 379.09 982.22 373.52 984.31 367.75 985.38 C 360.27 985.80 352.74 985.77 345.25 985.45 C 335.57 983.70 326.31 979.59 318.54 973.56 C 310.02 967.13 301.68 960.41 294.50 952.50 C 287.59 944.89 277.95 940.50 270.91 933.05 C 262.56 923.30 259.34 910.42 257.58 897.99 C 257.31 888.98 257.40 879.96 257.52 870.95 C 258.37 861.60 260.51 852.37 260.65 842.96 C 262.89 829.86 265.96 815.80 260.74 803.01 C 257.87 796.05 253.86 789.58 249.36 783.58 C 236.84 769.45 222.95 756.57 208.02 745.03 C 202.28 740.30 196.43 735.71 190.29 731.51 C 182.72 726.58 177.06 719.37 171.88 712.11 C 162.93 700.39 159.67 685.44 158.56 671.01 C 158.07 664.01 159.35 657.12 159.80 650.17 C 160.98 643.32 162.89 636.62 164.35 629.83 C 167.68 617.79 172.72 606.34 176.94 594.62 C 180.04 587.31 181.83 579.23 187.03 573.01 C 192.50 590.70 191.78 609.41 191.52 627.71 C 190.46 641.15 187.19 654.29 183.72 667.29 C 183.32 673.72 182.74 680.40 184.59 686.67 C 188.39 703.03 198.74 716.91 210.01 728.97 C 216.24 735.06 222.04 741.63 228.90 747.05 C 240.14 756.49 251.22 766.12 262.42 775.62 C 267.73 780.98 273.75 785.58 278.96 791.04 C 294.57 806.15 308.63 823.15 318.75 842.46 C 320.22 845.37 322.23 847.92 324.68 850.09 C 322.84 832.71 315.35 816.48 306.70 801.49 C 296.60 785.09 284.49 769.75 269.65 757.38 C 260.86 748.76 250.65 741.77 241.98 733.02 C 236.68 727.68 231.05 722.59 226.37 716.70 C 224.30 714.37 224.38 711.20 224.29 708.30 C 226.67 708.42 229.10 708.14 231.44 708.71 C 241.61 711.33 251.21 717.07 262.00 716.56 C 267.90 716.51 273.84 716.88 279.72 716.24 C 287.24 714.17 294.88 709.91 298.22 702.51 C 302.03 695.98 301.69 688.28 301.59 681.01 C 302.06 669.29 298.90 657.76 294.95 646.84 C 288.11 630.60 279.85 614.90 269.50 600.60 C 260.43 587.24 249.94 574.94 239.47 562.67 C 233.06 555.39 225.79 548.92 219.21 541.81 C 203.83 524.22 191.38 504.28 180.38 483.73 C 171.84 467.76 164.83 451.03 158.01 434.27 C 145.06 400.38 135.38 365.11 131.25 329.01 C 128.95 316.09 128.63 302.97 126.59 290.03 C 126.45 284.67 126.52 279.31 125.75 274.00 C 125.40 262.67 125.60 251.32 125.67 239.99 C 127.03 232.47 125.93 224.78 127.35 217.27 C 127.35 209.90 128.44 202.60 129.34 195.30 C 129.68 184.49 133.21 174.08 133.79 163.29 C 135.89 152.24 137.56 141.08 140.67 130.25 C 142.87 121.98 143.78 113.11 148.26 105.65 C 148.91 110.11 148.34 114.58 147.59 118.99 C 147.70 125.02 146.24 130.95 146.55 136.99 C 146.66 144.65 146.32 152.33 146.78 159.99 C 147.72 164.63 147.43 169.37 147.69 174.06 C 151.24 196.69 154.50 219.51 161.93 241.28 C 164.99 251.23 168.41 261.08 172.63 270.60 C 179.21 287.48 187.58 303.63 197.08 319.04 C 211.50 343.20 228.47 365.79 247.40 386.59 C 252.15 392.48 257.73 397.60 263.00 403.00 C 270.90 411.09 278.94 419.06 287.68 426.24 C 291.93 429.39 296.67 431.80 300.95 434.94 C 315.10 444.44 327.17 457.66 333.52 473.62 C 335.71 478.91 337.62 484.47 337.61 490.26 C 338.48 501.02 341.91 511.53 347.02 521.01 C 348.98 524.48 350.06 528.65 353.28 531.25 C 356.03 532.34 358.95 531.06 361.57 530.14 C 364.31 522.81 368.75 516.22 370.99 508.69 C 372.27 504.16 374.25 499.74 374.49 494.99 C 374.31 483.36 378.98 472.30 384.57 462.34 C 392.84 449.63 404.31 439.24 417.08 431.19 C 420.76 428.92 424.51 426.72 427.82 423.92 C 437.81 414.90 447.93 405.95 456.70 395.69 C 482.53 368.71 504.83 338.36 523.01 305.72 C 527.51 296.87 532.70 288.37 536.38 279.13 C 543.33 263.94 548.75 248.13 553.42 232.11 C 556.29 221.55 559.49 210.99 560.72 200.08 C 561.68 194.05 563.39 188.13 563.70 182.01 C 564.98 175.58 564.14 168.98 565.36 162.55 C 565.82 150.86 565.61 139.13 565.45 127.44 C 564.19 118.79 564.34 109.99 564.68 101.27 M 327.38 859.20 C 326.24 862.70 326.53 866.39 326.58 870.03 C 328.44 878.12 326.32 886.31 324.53 894.20 C 323.97 896.59 324.61 898.97 326.59 900.50 C 334.83 908.07 344.71 914.71 355.98 916.45 C 364.18 916.16 371.73 911.97 378.24 907.23 C 381.84 904.53 385.66 901.92 388.41 898.32 C 389.01 892.11 386.23 886.18 385.75 880.03 C 384.76 874.84 386.82 869.77 386.50 864.60 C 383.56 863.10 380.19 863.60 377.03 863.52 C 361.65 863.58 346.25 863.56 330.87 863.55 C 328.02 864.16 328.11 861.05 327.38 859.20 M 395.52 928.37 C 400.43 930.45 405.58 928.77 410.49 927.69 C 417.66 926.30 424.38 921.23 426.36 914.00 C 426.43 911.74 427.60 908.64 425.07 907.33 C 412.94 909.94 401.67 917.43 395.52 928.37 M 286.56 908.38 C 285.93 913.05 287.40 917.88 290.81 921.18 C 297.19 927.78 306.97 929.42 315.77 928.51 C 315.72 927.65 315.62 925.93 315.57 925.07 C 311.07 917.73 303.00 913.84 295.63 910.00 C 292.87 908.43 289.67 908.01 286.56 908.38 Z" />
<path fill="#fed700" d=" M 98.05 175.23 C 101.38 162.90 103.10 150.15 107.45 138.10 C 102.90 156.03 98.38 174.00 95.53 192.30 C 93.02 204.72 92.31 217.40 90.62 229.95 C 90.05 253.01 90.10 276.09 90.49 299.15 C 91.52 309.78 92.72 320.40 93.71 331.05 C 100.79 376.32 113.16 420.88 131.66 462.85 C 139.47 482.06 149.30 500.35 159.03 518.63 C 163.16 526.54 168.09 534.76 167.66 544.02 C 167.81 548.08 166.68 552.06 164.75 555.61 C 159.88 564.55 155.95 574.00 153.18 583.79 C 151.66 588.42 150.91 593.73 147.24 597.25 C 142.83 601.20 137.45 603.82 132.22 606.49 C 117.21 613.56 100.70 618.26 84.00 617.57 C 75.06 618.02 66.20 616.69 57.56 614.50 C 59.03 609.20 61.49 604.21 65.12 600.05 C 76.18 585.33 88.57 571.56 102.48 559.48 C 115.55 546.79 130.79 536.72 145.06 525.50 C 143.21 525.45 141.36 525.40 139.50 525.35 C 144.91 521.75 151.26 520.04 157.11 517.33 C 153.25 506.93 146.92 497.73 142.53 487.58 C 138.94 480.40 135.30 473.25 132.50 465.72 C 123.80 446.15 116.32 426.02 110.12 405.53 C 104.68 389.37 101.52 372.60 97.57 356.06 C 95.81 344.73 93.42 333.50 92.50 322.05 C 92.14 316.00 90.23 310.12 90.50 304.02 C 90.75 298.66 89.48 293.40 89.51 288.05 C 89.39 274.37 89.36 260.68 89.56 247.00 C 89.21 239.62 90.71 232.36 90.68 224.98 C 92.12 215.27 93.01 205.50 94.30 195.77 C 95.83 188.97 96.71 182.06 98.05 175.23 Z" />
<path fill="#fed700" d=" M 554.63 518.40 C 557.57 519.19 560.41 520.33 563.22 521.53 C 562.63 521.51 561.44 521.46 560.84 521.44 C 569.27 527.67 578.31 533.03 586.52 539.57 C 600.24 549.99 613.30 561.32 625.03 573.97 C 636.87 585.72 648.27 598.44 655.35 613.72 C 650.61 615.45 645.73 616.90 640.69 617.42 C 634.47 617.64 628.24 617.57 622.02 617.53 C 603.05 616.31 584.49 609.97 568.56 599.65 C 563.00 596.28 561.72 589.51 559.81 583.82 C 556.49 573.96 552.43 564.37 547.80 555.06 C 544.97 549.83 545.12 543.74 545.60 537.99 C 546.66 530.71 550.92 524.55 554.63 518.40 Z" />
</svg>